{
  "accessors": [
    {
      "bufferView": 3,
      "componentType": 5126,
      "count": 2072,
      "max": [
        3.478214979171753,
        12.474822998046875,
        12.484739303588867
      ],
      "min": [
        -3.478214979171753,
        0.007144169881939888,
        -26.778898239135742
      ],
      "type": "VEC3"
    },
    {
      "bufferView": 3,
      "byteOffset": 24864,
      "componentType": 5126,
      "count": 2072,
      "max": [
        0.99996417760849,
        0.9999955892562866,
        1.0
      ],
      "min": [
        -0.99996417760849,
        -1.0,
        -0.9977311491966248
      ],
      "type": "VEC3"
    },
    {
      "bufferView": 2,
      "componentType": 5126,
      "count": 2072,
      "max": [
        0.993681013584137,
        0.9951351284980774
      ],
      "min": [
        0.009053990244865417,
        0.006480991840362549
      ],
      "type": "VEC2"
    },
    {
      "bufferView": 2,
      "byteOffset": 16576,
      "componentType": 5126,
      "count": 2072,
      "max": [
        0.0,
        1.0
      ],
      "min": [
        0.0,
        1.0
      ],
      "type": "VEC2"
    },
    {
      "bufferView": 2,
      "byteOffset": 33152,
      "componentType": 5126,
      "count": 2072,
      "max": [
        1.0,
        0.0
      ],
      "min": [
        1.0,
        0.0
      ],
      "type": "VEC2"
    },
    {
      "bufferView": 2,
      "byteOffset": 49728,
      "componentType": 5126,
      "count": 2072,
      "max": [
        0.9999964833259583,
        1.9999935626983643
      ],
      "min": [
        -0.9997997879981995,
        3.5762786865234375e-07
      ],
      "type": "VEC2"
    },
    {
      "bufferView": 2,
      "byteOffset": 66304,
      "componentType": 5126,
      "count": 2072,
      "max": [
        1.0,
        0.0
      ],
      "min": [
        1.0,
        0.0
      ],
      "type": "VEC2"
    },
    {
      "bufferView": 2,
      "byteOffset": 82880,
      "componentType": 5126,
      "count": 2072,
      "max": [
        0.9999523162841797,
        2.0
      ],
      "min": [
        -0.9999523162841797,
        0.0
      ],
      "type": "VEC2"
    },
    {
      "bufferView": 1,
      "componentType": 5125,
      "count": 7476,
      "type": "SCALAR"
    },
    {
      "bufferView": 5,
      "componentType": 5126,
      "count": 73,
      "max": [
        100.0,
        0.0,
        0.0,
        0.0,
        0.0,
        100.0,
        0.0,
        0.0,
        0.0,
        0.0,
        100.0,
        0.0,
        2.1331117153167725,
        0.0,
        22.77908706665039,
        1.0
      ],
      "min": [
        1.0,
        0.0,
        0.0,
        0.0,
        0.0,
        1.0,
        0.0,
        0.0,
        0.0,
        0.0,
        1.0,
        0.0,
        -2.1331043243408203,
        -12.142583847045898,
        -11.501049041748047,
        1.0
      ],
      "type": "MAT4"
    },
    {
      "bufferView": 0,
      "componentType": 5123,
      "count": 2072,
      "type": "VEC4"
    },
    {
      "bufferView": 4,
      "componentType": 5126,
      "count": 2072,
      "max": [
        1.0,
        0.5,
        0.30909088253974915,
        0.0
      ],
      "min": [
        0.37090909481048584,
        0.0,
        0.0,
        0.0
      ],
      "type": "VEC4"
    }
  ],
  "asset": {
    "extras": {
      "author": "gosaviprasad17 (https://sketchfab.com/gosaviprasad17)",
      "license": "SKETCHFAB Standard (https://sketchfab.com/licenses)",
      "source": "https://sketchfab.com/3d-models/rajah-tiger-a6fba8c93fe2463da4a8961fa59f672c",
      "title": "RAJAH ( TIGER )"
    },
    "generator": "Sketchfab-16.59.0",
    "version": "2.0"
  },
  "bufferViews": [
    {
      "buffer": 0,
      "byteLength": 16576,
      "byteStride": 8,
      "name": "shortBufferViews",
      "target": 34962
    },
    {
      "buffer": 0,
      "byteLength": 29904,
      "byteOffset": 16576,
      "name": "floatBufferViews",
      "target": 34963
    },
    {
      "buffer": 0,
      "byteLength": 99456,
      "byteOffset": 46480,
      "byteStride": 8,
      "name": "floatBufferViews",
      "target": 34962
    },
    {
      "buffer": 0,
      "byteLength": 49728,
      "byteOffset": 145936,
      "byteStride": 12,
      "name": "floatBufferViews",
      "target": 34962
    },
    {
      "buffer": 0,
      "byteLength": 33152,
      "byteOffset": 195664,
      "byteStride": 16,
      "name": "floatBufferViews",
      "target": 34962
    },
    {
      "buffer": 0,
      "byteLength": 4672,
      "byteOffset": 228816,
      "name": "floatBufferViews"
    }
  ],
  "buffers": [
    {
      "byteLength": 233488,
      "uri": "scene.bin"
    }
  ],
  "images": [
    {
      "uri": "textures/rajah_mat_baseColor.jpeg"
    }
  ],
  "materials": [
    {
      "doubleSided": true,
      "name": "rajah_mat",
      "pbrMetallicRoughness": {
        "baseColorTexture": {
          "index": 0
        },
        "metallicFactor": 0.0,
        "roughnessFactor": 0.7311863512712958
      }
    }
  ],
  "meshes": [
    {
      "name": "Rajah_mesh_rajah_mat_0",
      "primitives": [
        {
          "attributes": {
            "JOINTS_0": 10,
            "NORMAL": 1,
            "POSITION": 0,
            "TEXCOORD_0": 2,
            "TEXCOORD_1": 3,
            "TEXCOORD_2": 4,
            "TEXCOORD_3": 5,
            "TEXCOORD_4": 6,
            "TEXCOORD_5": 7,
            "WEIGHTS_0": 11
          },
          "indices": 8,
          "material": 0,
          "mode": 4
        }
      ]
    }
  ],
  "nodes": [
    {
      "children": [
        1
      ],
      "matrix": [
        1.0,
        0.0,
        0.0,
        0.0,
        0.0,
        2.220446049250313e-16,
        -1.0,
        0.0,
        0.0,
        1.0,
        2.220446049250313e-16,
        0.0,
        0.0,
        0.0,
        0.0,
        1.0
      ],
      "name": "Sketchfab_model"
    },
    {
      "children": [
        2
      ],
      "matrix": [
        0.009999999776482582,
        0.0,
        0.0,
        0.0,
        0.0,
        0.0,
        0.009999999776482582,
        0.0,
        0.0,
        -0.009999999776482582,
        0.0,
        0.0,
        0.0,
        0.0,
        0.0,
        1.0
      ],
      "name": "6be5fcfbd5e84e93bddd93e491a74c76.fbx"
    },
    {
      "children": [
        3
      ],
      "name": "RootNode"
    },
    {
      "children": [
        4
      ],
      "matrix": [
        100.0,
        0.0,
        0.0,
        0.0,
        0.0,
        -1.629206793918314e-05,
        -99.99999999999868,
        0.0,
        0.0,
        99.99999999999868,
        -1.629206793918314e-05,
        0.0,
        0.0,
        0.0,
        0.0,
        1.0
      ],
      "name": "Rajah_arm"
    },
    {
      "children": [
        5,
        79,
        78
      ],
      "name": "Object_4"
    },
    {
      "children": [
        6
      ],
      "name": "_rootJoint"
    },
    {
      "children": [
        7,
        72
      ],
      "name": "Bip001_Pelvis_01",
      "rotation": [
        0.7071068286895752,
        0.0,
        0.0,
        0.7071067094802856
      ],
      "translation": [
        0.0,
        2.117582368135751e-22,
        9.527832984924316
      ]
    },
    {
      "children": [
        8,
        62,
        67
      ],
      "name": "Bip001_Spine_02",
      "translation": [
        8.276122571260203e-06,
        -1.2777290344238281,
        -5.138302326202393
      ]
    },
    {
      "children": [
        9
      ],
      "name": "Bip001_Spine1_03",
      "translation": [
        1.926389813888818e-06,
        0.031586647033691406,
        5.249073505401611
      ]
    },
    {
      "children": [
        10,
        50,
        56
      ],
      "name": "Bip001_Neck_04",
      "translation": [
        -6.54153245704947e-06,
        1.4241085052490234,
        5.181410789489746
      ]
    },
    {
      "children": [
        11,
        16,
        18,
        20,
        22,
        24,
        26,
        28,
        30,
        32,
        34,
        36,
        38,
        40,
        42,
        44,
        46,
        48
      ],
      "name": "Bip001_Head_05",
      "translation": [
        -2.7182281883142423e-06,
        0.8011140823364258,
        2.5442657470703125
      ]
    },
    {
      "children": [
        12,
        14
      ],
      "name": "Bip001_Jaw_06",
      "translation": [
        1.916801920742728e-06,
        -0.8281612396240234,
        1.555704116821289
      ]
    },
    {
      "children": [
        13
      ],
      "name": "Bip001_Mouth_bottomR_07",
      "translation": [
        -0.45778509974479675,
        -0.36589717864990234,
        2.1041526794433594
      ]
    },
    {
      "name": "Bip001_Mouth_bottomR_end_049",
      "translation": [
        0.0,
        1.0,
        0.0
      ]
    },
    {
      "children": [
        15
      ],
      "name": "Bip001_Mouth_bottom_L_08",
      "translation": [
        0.4577842652797699,
        -0.36589717864990234,
        2.104153633117676
      ]
    },
    {
      "name": "Bip001_Mouth_bottom_L_end_050",
      "translation": [
        0.0,
        1.0,
        0.0
      ]
    },
    {
      "children": [
        17
      ],
      "name": "Bip001_Nose_09",
      "translation": [
        1.170683026430197e-05,
        0.6252260208129883,
        3.664600372314453
      ]
    },
    {
      "name": "Bip001_Nose_end_051",
      "translation": [
        0.0,
        1.0,
        0.0
      ]
    },
    {
      "children": [
        19
      ],
      "name": "Bip001_Mouth_Top_R_010",
      "translation": [
        -0.5837604403495789,
        -0.7750682830810547,
        3.6563453674316406
      ]
    },
    {
      "name": "Bip001_Mouth_Top_R_end_00",
      "translation": [
        0.0,
        1.0,
        0.0
      ]
    },
    {
      "children": [
        21
      ],
      "name": "Bip001_Mouth_Top_L_011",
      "translation": [
        0.5837717652320862,
        -0.7750701904296875,
        3.656344413757324
      ]
    },
    {
      "name": "Bip001_Mouth_Top_L_end_052",
      "translation": [
        0.0,
        1.0,
        0.0
      ]
    },
    {
      "children": [
        23
      ],
      "name": "Bip001_Mouth_R_Corner_012",
      "translation": [
        -0.8792049884796143,
        -1.1223297119140625,
        2.6672849655151367
      ]
    },
    {
      "name": "Bip001_Mouth_R_Corner_end_053",
      "translation": [
        0.0,
        1.0,
        0.0
      ]
    },
    {
      "children": [
        25
      ],
      "name": "Bip001_Mouth_L_Corner_013",
      "translation": [
        0.8792121410369873,
        -1.122330665588379,
        2.6672821044921875
      ]
    },
    {
      "name": "Bip001_Mouth_L_Corner_end_054",
      "translation": [
        0.0,
        1.0,
        0.0
      ]
    },
    {
      "children": [
        27
      ],
      "name": "Bip001_EyelidBottom_R_014",
      "translation": [
        -0.8520213961601257,
        0.8339948654174805,
        2.273482322692871
      ]
    },
    {
      "name": "Bip001_EyelidBottom_R_end_055",
      "translation": [
        0.0,
        1.0,
        0.0
      ]
    },
    {
      "children": [
        29
      ],
      "name": "Bip001_EyelidBottom_L_015",
      "translation": [
        0.8520278334617615,
        0.8339948654174805,
        2.2734813690185547
      ]
    },
    {
      "name": "Bip001_EyelidBottom_L_end_056",
      "translation": [
        0.0,
        1.0,
        0.0
      ]
    },
    {
      "children": [
        31
      ],
      "name": "Bip001_Eyelid_Top_R_016",
      "translation": [
        -0.8499412536621094,
        0.8231258392333984,
        2.275956153869629
      ]
    },
    {
      "name": "Bip001_Eyelid_Top_R_end_057",
      "translation": [
        0.0,
        1.0,
        0.0
      ]
    },
    {
      "children": [
        33
      ],
      "name": "Bip001_Eyelid_Top_L_017",
      "translation": [
        0.8499478101730347,
        0.8231267929077148,
        2.2759532928466797
      ]
    },
    {
      "name": "Bip001_Eyelid_Top_L_end_058",
      "translation": [
        0.0,
        1.0,
        0.0
      ]
    },
    {
      "children": [
        35
      ],
      "name": "Bip001_Eyebrow2_R_018",
      "translation": [
        -1.28244948387146,
        1.3378410339355469,
        2.1567134857177734
      ]
    },
    {
      "name": "Bip001_Eyebrow2_R_end_059",
      "translation": [
        0.0,
        1.0,
        0.0
      ]
    },
    {
      "children": [
        37
      ],
      "name": "Bip001_Eyebrow2_L_019",
      "translation": [
        1.2824560403823853,
        1.3378429412841797,
        2.156710624694824
      ]
    },
    {
      "name": "Bip001_Eyebrow2_L_end_060",
      "translation": [
        0.0,
        1.0,
        0.0
      ]
    },
    {
      "children": [
        39
      ],
      "name": "Bip001_Eyebrow1_R_020",
      "translation": [
        -0.5871865153312683,
        1.6356706619262695,
        2.6293907165527344
      ]
    },
    {
      "name": "Bip001_Eyebrow1_R_end_061",
      "translation": [
        0.0,
        1.0,
        0.0
      ]
    },
    {
      "children": [
        41
      ],
      "name": "Bip001_Eyebrow1_L_021",
      "translation": [
        0.5871934294700623,
        1.6356706619262695,
        2.629389762878418
      ]
    },
    {
      "name": "Bip001_Eyebrow1_L_end_062",
      "translation": [
        0.0,
        1.0,
        0.0
      ]
    },
    {
      "children": [
        43
      ],
      "name": "Bip001_Eye_R_022",
      "translation": [
        0.8145346641540527,
        0.8338718414306641,
        2.183208465576172
      ]
    },
    {
      "name": "Bip001_Eye_R_end_063",
      "translation": [
        0.0,
        1.0,
        0.0
      ]
    },
    {
      "children": [
        45
      ],
      "name": "Bip001_Eye_L_023",
      "translation": [
        -0.8145287036895752,
        0.8338718414306641,
        2.183208465576172
      ]
    },
    {
      "name": "Bip001_Eye_L_end_064",
      "translation": [
        0.0,
        1.0,
        0.0
      ]
    },
    {
      "children": [
        47
      ],
      "name": "Bip001_Ponytail2_024",
      "translation": [
        -1.3423422574996948,
        1.0138683319091797,
        0.14238214492797852
      ]
    },
    {
      "name": "Bip001_Ponytail2_end_065",
      "translation": [
        0.0,
        1.0,
        0.0
      ]
    },
    {
      "children": [
        49
      ],
      "name": "Bip001_Ponytail1_025",
      "translation": [
        1.3423433303833008,
        1.013869285583496,
        0.1423783302307129
      ]
    },
    {
      "name": "Bip001_Ponytail1_end_066",
      "translation": [
        0.0,
        1.0,
        0.0
      ]
    },
    {
      "children": [
        51
      ],
      "name": "Bip001_R_Clavicle_026",
      "translation": [
        -0.6071942448616028,
        1.1596708297729492,
        -1.6732699871063232
      ]
    },
    {
      "children": [
        52
      ],
      "name": "Bip001_R_UpperArm_027",
      "translation": [
        -1.3065035343170166,
        -3.693779468536377,
        1.069392442703247
      ]
    },
    {
      "children": [
        53
      ],
      "name": "Bip001_R_Forearm_028",
      "translation": [
        0.032599806785583496,
        -2.299633026123047,
        -1.4505045413970947
      ]
    },
    {
      "children": [
        54
      ],
      "name": "Bip001_R_Hand_029",
      "translation": [
        0.03206145763397217,
        -3.242551803588867,
        0.691237211227417
      ]
    },
    {
      "children": [
        55
      ],
      "name": "Bip001_R_Finger0_030",
      "translation": [
        0.04768848419189453,
        -0.7741198539733887,
        0.9444398880004883
      ]
    },
    {
      "name": "Bip001_R_Finger0_end_067",
      "translation": [
        0.0,
        0.9999999403953552,
        0.0
      ]
    },
    {
      "children": [
        57
      ],
      "name": "Bip001_L_Clavicle_031",
      "translation": [
        0.6072014570236206,
        1.159672737121582,
        -1.673269510269165
      ]
    },
    {
      "children": [
        58
      ],
      "name": "Bip001_L_UpperArm_032",
      "translation": [
        1.306504726409912,
        -3.6937828063964844,
        1.0693938732147217
      ]
    },
    {
      "children": [
        59
      ],
      "name": "Bip001_L_Forearm_033",
      "translation": [
        -0.03260397911071777,
        -2.2996301651000977,
        -1.4505040645599365
      ]
    },
    {
      "children": [
        60
      ],
      "name": "Bip001_L_Hand_034",
      "translation": [
        -0.0320591926574707,
        -3.242551803588867,
        0.6912364959716797
      ]
    },
    {
      "children": [
        61
      ],
      "name": "Bip001_L_Finger0_035",
      "translation": [
        -0.047685980796813965,
        -0.7741203308105469,
        0.9444406032562256
      ]
    },
    {
      "name": "Bip001_L_Finger0_end_068",
      "translation": [
        0.0,
        0.9999999403953552,
        0.0
      ]
    },
    {
      "children": [
        63
      ],
      "name": "Bip001_R_Thigh_036",
      "translation": [
        -1.5663821697235107,
        1.2777328491210938,
        -1.1519789695739746
      ]
    },
    {
      "children": [
        64
      ],
      "name": "Bip001_R_Calf_037",
      "translation": [
        -0.3843719959259033,
        -3.9498887062072754,
        -0.38813352584838867
      ]
    },
    {
      "children": [
        65
      ],
      "name": "Bip001_R_Foot_038",
      "translation": [
        -0.1823657751083374,
        -2.303439140319824,
        -2.0640053749084473
      ]
    },
    {
      "children": [
        66
      ],
      "name": "Bip001_R_Toe0_039",
      "translation": [
        0.10360026359558105,
        -2.476060390472412,
        0.80902099609375
      ]
    },
    {
      "name": "Bip001_R_Toe0_end_069",
      "translation": [
        0.0,
        1.0,
        0.0
      ]
    },
    {
      "children": [
        68
      ],
      "name": "Bip001_L_Thigh_040",
      "translation": [
        1.566367268562317,
        1.2777290344238281,
        -1.1519970893859863
      ]
    },
    {
      "children": [
        69
      ],
      "name": "Bip001_L_Calf_041",
      "translation": [
        0.38436996936798096,
        -3.949888229370117,
        -0.3881354331970215
      ]
    },
    {
      "children": [
        70
      ],
      "name": "Bip001_L_Foot_042",
      "translation": [
        0.18235886096954346,
        -2.3034398555755615,
        -2.0640034675598145
      ]
    },
    {
      "children": [
        71
      ],
      "name": "Bip001_L_Toe0_043",
      "translation": [
        -0.10359716415405273,
        -2.476060152053833,
        0.8090200424194336
      ]
    },
    {
      "name": "Bip001_L_Toe0_end_070",
      "translation": [
        0.0,
        1.0,
        0.0
      ]
    },
    {
      "children": [
        73
      ],
      "name": "Bip001_Tail_044",
      "translation": [
        -3.810740054177586e-06,
        0.6050167083740234,
        -7.652651786804199
      ]
    },
    {
      "children": [
        74
      ],
      "name": "Bip001_Tail02_045",
      "translation": [
        -4.5544456952484325e-06,
        0.007863044738769531,
        -3.3128738403320313
      ]
    },
    {
      "children": [
        75
      ],
      "name": "Bip001_Tail03_046",
      "translation": [
        -5.549984962271992e-06,
        0.02759265899658203,
        -4.087095260620117
      ]
    },
    {
      "children": [
        76
      ],
      "name": "Bip001_Tail04_047",
      "translation": [
        -5.4407264542533085e-06,
        0.036757469177246094,
        -4.026806831359863
      ]
    },
    {
      "children": [
        77
      ],
      "name": "Bip001_Tail05_048",
      "translation": [
        -5.02947841596324e-06,
        0.0023641586303710938,
        -3.6996593475341797
      ]
    },
    {
      "name": "Bip001_Tail05_end_071",
      "translation": [
        0.0,
        1.0,
        0.0
      ]
    },
    {
      "matrix": [
        100.0,
        0.0,
        0.0,
        0.0,
        0.0,
        6.123233995736766e-15,
        -100.0,
        0.0,
        0.0,
        100.0,
        6.123233995736766e-15,
        0.0,
        0.0,
        -6.866455078125e-05,
        0.0,
        1.0
      ],
      "name": "Object_78"
    },
    {
      "mesh": 0,
      "name": "Object_79",
      "skin": 0
    }
  ],
  "samplers": [
    {
      "magFilter": 9729,
      "minFilter": 9987,
      "wrapS": 10497,
      "wrapT": 10497
    }
  ],
  "scene": 0,
  "scenes": [
    {
      "name": "Sketchfab_Scene",
      "nodes": [
        0
      ]
    }
  ],
  "skins": [
    {
      "inverseBindMatrices": 9,
      "joints": [
        5,
        6,
        7,
        8,
        9,
        10,
        11,
        12,
        13,
        14,
        15,
        16,
        17,
        18,
        19,
        20,
        21,
        22,
        23,
        24,
        25,
        26,
        27,
        28,
        29,
        30,
        31,
        32,
        33,
        34,
        35,
        36,
        37,
        38,
        39,
        40,
        41,
        42,
        43,
        44,
        45,
        46,
        47,
        48,
        49,
        50,
        51,
        52,
        53,
        54,
        55,
        56,
        57,
        58,
        59,
        60,
        61,
        62,
        63,
        64,
        65,
        66,
        67,
        68,
        69,
        70,
        71,
        72,
        73,
        74,
        75,
        76,
        77
      ],
      "skeleton": 5
    }
  ],
  "textures": [
    {
      "sampler": 0,
      "source": 0
    }
  ]
}
